# xmcd
#
# Track frame offsets:
#	150
#	10007
#	24977
#	42535
#	54988
#	68807
#	83344
#	96359
#	111418
#	124075
#	135848
#	154768
#	166039
#	177660
#	196217
#
# Disc length: 2769 seconds
#
# Revision: 2
# Processed by: cddbd v1.5.2PL0 Copyright (c) Steve Scherf et al.
# Submitted via: audiograbber 1.83.01
#
DISCID=b70acf0f
DTITLE=Various Artist - CD2 - Soul Aerobics
DYEAR=2011
DGENRE=Pop/Rock
TTITLE0=Sweet Soul Music
TTITLE1=Cruisin'
TTITLE2=Let's Get It On
TTITLE3=You Send M
TTITLE4=Ain't No Woman
TTITLE5=Let's Stay Together
TTITLE6=Brick House
TTITLE7=Can't Get Enough of Your Love
TTITLE8=Soul Man
TTITLE9=Stand By Me
TTITLE10=Papa Was A Rolling Stone
TTITLE11=Get Ready
TTITLE12=I Feel The Earth Move
TTITLE13=I Just Called To Say I Love You
TTITLE14=Groovin'
EXTD=
EXTT0=
EXTT1=
EXTT2=
EXTT3=
EXTT4=
EXTT5=
EXTT6=
EXTT7=
EXTT8=
EXTT9=
EXTT10=
EXTT11=
EXTT12=
EXTT13=
EXTT14=
PLAYORDER=
